<svg width="150" height="146" viewBox="0 0 150 146" fill="none" xmlns="http://www.w3.org/2000/svg">
<path d="M120.057 73.9568C104.629 73.7328 93.1065 64.7918 89.4456 50.423C88.5749 46.9912 88.3509 43.4016 87.6482 39.924C86.7266 35.372 85.6573 30.8455 84.5932 26.3291C84.084 24.2008 84.7765 23.2741 86.9557 23.7426C90.3264 24.4809 92.8926 26.5175 94.0586 29.7151C95.3214 33.1927 96.0953 36.8435 97.0118 40.4433C97.3428 41.7519 97.2817 43.1725 97.7145 44.4352C97.9792 45.1989 98.8499 45.7489 99.4507 46.3955C100.036 45.7387 100.978 45.148 101.131 44.4097C101.471 42.7581 101.533 41.0613 101.314 39.3893C100.108 31.8689 96.024 25.9014 90.6676 20.7385C87.0117 17.2048 83.081 13.9563 79.5117 10.3412C77.699 8.50312 76.3039 6.21186 74.9648 3.97661C74.4556 3.10593 74.5727 1.83301 74.2978 0C77.1746 1.24746 79.3895 2.01122 81.4261 3.13139C96.3244 11.3443 108.107 22.5358 114.609 38.5848C117.272 45.1582 117.827 52.0931 117.155 59.0993C116.676 64.2419 116.447 69.2725 120.057 73.9568Z" fill="#FE2A05"/>
<path d="M81.0597 27.4439C79.2318 40.2597 68.7276 50.3921 55.3416 52.0469C50.7591 52.6121 46.0645 52.0826 41.4158 52.1182C36.8588 52.1488 32.2966 52.1742 27.7446 52.3881C25.2904 52.5052 24.435 51.609 25.5043 49.3331C26.879 46.3951 29.2467 44.277 32.4188 43.8646C36.6755 43.3198 41.0034 43.3554 45.3059 43.167C46.4821 43.111 47.7142 43.2536 48.8242 42.9532C50.4026 42.5153 50.6623 41.2984 49.3334 40.4073C48.1401 39.6154 46.7881 39.0941 45.3721 38.8798C38.7834 37.9124 32.6428 39.6487 27.1183 42.9888C22.2711 45.9114 17.8515 49.5367 13.1111 52.663C10.48 54.3543 7.70441 55.8095 4.81674 57.0113C3.52854 57.5612 1.88393 57.271 0.402244 57.3627L0 56.3952C1.74136 54.0531 3.31978 51.5632 5.25462 49.3891C15.3311 38.0295 27.4137 29.7708 42.312 26.0538C50.6165 23.9866 58.8396 24.7555 66.8946 27.3013C71.5434 28.7779 76.1004 29.5009 81.0597 27.4439Z" fill="#7BF905"/>
<path d="M115.775 144.008C112.211 144.492 108.616 145.24 105.016 145.408C90.8356 146.07 77.2815 143.591 64.8425 136.473C57.5258 132.282 52.0166 126.203 48.0043 118.835C45.5501 114.288 42.8261 110.092 37.5256 108.28C45.7283 101.36 59.7305 100.245 69.5472 106.243C74.0381 108.982 77.8518 112.862 81.7979 116.427C85.8712 120.103 89.7307 124.008 93.687 127.817L95.2857 129.344C93.9212 130.174 92.8672 131.136 91.6401 131.498C88.305 132.476 85.1329 131.6 82.5362 129.497C79.5219 127.053 76.8182 124.237 73.9719 121.59C72.7754 120.48 71.6348 118.494 69.8986 119.731C69.3589 120.113 69.8986 122.949 70.7031 124.161C74.4098 129.762 80.031 132.857 86.3142 134.344C92.7246 135.872 99.3438 136.523 105.826 137.791C108.468 138.372 111.039 139.239 113.494 140.378C114.573 140.846 115.327 142.073 116.223 142.959L115.775 144.008Z" fill="#04AFFE"/>
<path d="M23.8089 140.296C19.598 134.354 17.322 128.616 15.6622 122.638C13.0094 112.964 11.9045 103.152 13.1163 93.1626C14.2177 83.9042 18.1797 75.2201 24.4504 68.3202C28.1368 64.201 32.0472 60.2753 32.0523 53.6918C40.4943 60.9984 45.4689 69.2113 44.695 80.1686C44.2164 86.9303 41.5534 92.8978 38.31 98.7685C35.7642 103.351 33.6307 108.132 31.4464 112.888C30.4281 115.138 29.2723 115.479 27.6989 113.565C25.4077 110.78 24.985 107.455 25.9626 104.181C26.8944 101.034 28.3557 98.0455 29.6592 95.0159C30.092 93.9976 30.9881 93.1677 31.258 92.1442C31.5788 90.8968 31.4566 89.5373 31.5279 88.2287C30.3008 88.7786 28.702 89.0129 27.9077 89.9344C24.0838 94.3846 22.5207 99.8632 22.7345 105.525C22.9586 111.411 24.262 117.236 24.8628 123.137C25.3109 127.414 25.5502 131.722 25.5859 136.019C25.6317 137.231 24.6184 138.474 23.8089 140.296Z" fill="#F7FA05"/>
<path d="M93.0456 120.398C88.9723 106.783 92.4754 93.9215 104.828 85.3216C107.796 83.2544 111.182 81.7575 114.344 79.9856C118.754 77.4855 123.168 75.0008 127.511 72.3938C129.365 71.2788 130.439 71.5741 130.739 73.8246C131.167 76.9662 130.2 79.9346 127.807 81.8593C124.604 84.4408 120.994 86.5233 117.521 88.7636C116.462 89.451 115.189 89.8329 114.207 90.6017C113.636 91.0447 113.453 91.9765 113.097 92.6893C113.896 93.0559 114.762 93.8299 115.485 93.7077C117.242 93.4498 118.949 92.9172 120.541 92.1292C127.868 88.2646 132.252 81.8186 135.699 74.5476C138.245 69.2064 140.892 63.906 143.723 58.7125C144.742 56.8438 146.269 55.1025 149.38 55.2043C149.217 57.1951 149.187 59.0893 148.896 60.9477C146.478 76.2839 140.067 89.7209 129.339 100.974C123.27 107.353 115.709 111.233 107.16 113.27C98.4632 115.347 98.1068 115.515 93.0456 120.398Z" fill="#973FB4"/>
</svg>
