<svg xmlns="http://www.w3.org/2000/svg" viewBox="0 0 155.57 223.6"><defs><style>.cls-1{fill:#43c59e;}</style></defs><g id="Layer_2" data-name="Layer 2"><g id="Layer_1-2" data-name="Layer 1"><path class="cls-1" d="M0,184.12c2.62-11.8,4.88-23.69,7.92-35.39,8.8-33.93,23.86-64.58,48.56-89.92C70.76,44.16,88,34.07,107.1,27,121.73,21.66,135.52,15.11,144,0c7.32,10.57,10.25,21.81,11.21,33.5,2.6,31.57-7.65,58.23-32.1,78.65-22.23,18.57-45,36.53-67.49,54.76-9.07-11.21-9.32-24.5.35-35.17,6.77-7.48,15.2-13.46,22.89-20.11L97.09,95.92,96.38,93c-4.22,0-8.91-1.21-12.58.21-15.24,5.88-27,16.55-33.39,31.41C40.15,148.53,31.35,173.1,22,197.41,19.78,203,18,208.78,15.49,214.2c-3,6.37-7.77,10.44-15.49,9.17Z"/></g></g></svg>