<svg xmlns="http://www.w3.org/2000/svg" viewBox="0 0 155.57 223.6"><defs><style>.cls-1{fill:#48beff;}</style></defs><g id="Layer_2" data-name="Layer 2"><g id="Layer_1-2" data-name="Layer 1"><path class="cls-1" d="M155.57,39.48c-2.61,11.8-4.88,23.7-7.91,35.39-8.81,33.93-23.87,64.58-48.56,89.92-14.29,14.66-31.52,24.74-50.63,31.77-14.62,5.38-28.42,11.93-36.87,27C4.28,213,1.35,201.79.39,190.11c-2.6-31.57,7.65-58.24,32.1-78.66,22.23-18.57,45-36.53,67.49-54.76,9.07,11.21,9.33,24.51-.34,35.17-6.78,7.48-15.2,13.47-22.9,20.11q-9.12,7.88-18.25,15.71l.7,2.95c4.22,0,8.91,1.21,12.58-.21C87,124.53,98.8,113.86,105.16,99c10.27-23.94,19.07-48.51,28.46-72.81,2.17-5.6,3.93-11.37,6.47-16.79C143.06,3,147.85-1,155.57.23Z"/></g></g></svg>